<?xml version="1.0" encoding="UTF-8"?>
<svg id="Layer_1" xmlns="http://www.w3.org/2000/svg" version="1.1" viewBox="0 0 1024 1024">
  <!-- Generator: Adobe Illustrator 30.1.0, SVG Export Plug-In . SVG Version: 2.1.1 Build 136)  -->
  <path d="M933,451.2c-1.4-9.9-8.6-18-18.3-20.5l-42.3-11.2c-8.7-34-22.2-66.4-40.2-96.7l22.1-37.8c5-8.6,4.5-19.4-1.6-27.5-12.1-16.2-25.5-31.7-39.9-46-14.3-14.3-29.9-27.8-46-39.9-8-6-18.8-6.6-27.5-1.6l-37.8,22.1c-30.3-18-62.7-31.5-96.7-40.2l-11.2-42.3c-2.6-9.7-10.6-16.9-20.5-18.3-39.9-5.7-81.6-5.7-121.6,0-9.9,1.4-18,8.6-20.5,18.3l-11.2,42.3c-34,8.7-66.4,22.2-96.7,40.2l-37.8-22.1c-8.6-5-19.4-4.5-27.5,1.6-16.2,12.1-31.7,25.5-46,40-14.5,14.5-27.8,29.9-39.9,46-6,8-6.6,18.8-1.6,27.5l22.1,37.8c-18,30.3-31.5,62.7-40.2,96.7l-42.3,11.2c-9.7,2.5-16.9,10.6-18.3,20.5-2.9,20-4.4,40.5-4.4,60.8s1.5,40.8,4.4,60.8c1.4,9.9,8.6,18,18.3,20.5l42.3,11.2c8.7,34,22.2,66.4,40.2,96.7l-22.1,37.8c-5,8.6-4.5,19.4,1.6,27.5,12.1,16.2,25.5,31.7,40,46,14.3,14.3,29.9,27.8,46,39.9,8,5.9,18.8,6.6,27.5,1.6l37.8-22.1c30.3,18,62.7,31.4,96.7,40.2l11.2,42.3c2.5,9.7,10.6,16.9,20.5,18.3,20,2.9,40.4,4.4,60.8,4.4s40.8-1.5,60.8-4.4c9.9-1.4,18-8.6,20.5-18.3l11.2-42.3c34-8.7,66.4-22.2,96.7-40.2l37.8,22.1c8.6,5,19.4,4.5,27.5-1.6,16.2-12.1,31.7-25.5,46-39.9,14.4-14.4,27.8-29.9,39.9-46,5.9-8,6.6-18.8,1.6-27.5l-22.1-37.8c18-30.3,31.4-62.7,40.2-96.7l42.3-11.2c9.7-2.6,16.9-10.6,18.3-20.5,2.9-20,4.4-40.4,4.4-60.8s-1.5-40.8-4.4-60.8h0ZM786,513.1c2.9,181.1-180.8,314.4-352.1,261l-110.7,57.8,18.2-106.4c-200-159.7-87.3-486,170.9-487.1,151,0,273.6,123,273.6,274.7Z" fill="#bc4700"/>
  <path d="M305.1,596.9l131-157.6c2.8-3.4,8.4-4.4,12.7-2.2l103.5,52.2c3,1.5,6.8,1.5,9.8,0l140.7-70.4c8.6-4.3,18.3,4.1,12.7,11l-125.9,155.7c-2.8,3.5-8.4,4.5-12.7,2.3l-109-55.3c-3.1-1.6-7-1.5-10,.1l-139.9,75.1c-8.6,4.6-18.7-3.9-12.9-11Z" fill="#bc4700"/>
</svg>